<svg id="_3" data-name="3" xmlns="http://www.w3.org/2000/svg" xmlns:xlink="http://www.w3.org/1999/xlink" viewBox="0 0 68.559 39.421">
  <defs>
    <style>
      .cls-1 {
        fill: #fff;
      }

      .cls-2 {
        fill: #27253f;
        font-size: 6px;
        font-family: Montserrat-Medium, Montserrat;
        font-weight: 500;
      }

      .cls-3 {
        fill: url(#linear-gradient);
      }
    </style>
    <linearGradient id="linear-gradient" x1="0.5" x2="0.5" y2="1" gradientUnits="objectBoundingBox">
      <stop offset="0" stop-color="#ffab68"/>
      <stop offset="1" stop-color="#ff599d"/>
    </linearGradient>
  </defs>
  <rect id="Rectangle_4" data-name="Rectangle 4" class="cls-1" width="68.559" height="39.421"/>
  <text id="Real-time_Metrics" data-name="Real-time Metrics" class="cls-2" transform="translate(33.999 33.424)"><tspan x="-26.889" y="0">Real-time Metrics</tspan></text>
  <g id="stopwatch" transform="translate(22.359 2.819)">
    <path id="Path_297" data-name="Path 297" class="cls-3" d="M29.225,27.959a1.326,1.326,0,0,0,.971-.544l3.49-4.824a.373.373,0,0,0-.521-.521L28.34,25.561a1.328,1.328,0,0,0,.78,2.4C29.155,27.963,29.19,27.962,29.225,27.959ZM28.54,26.59a.582.582,0,0,1,.237-.426l2.943-2.129-2.128,2.942a.582.582,0,0,1-1.052-.388Z" transform="translate(-16.31 -13.801)"/>
    <path id="Path_298" data-name="Path 298" class="cls-3" d="M35.063,7.291c0-.008,0-.016-.008-.024s-.012-.012-.016-.019A10.132,10.132,0,0,0,33.71,5.457l.8-.8.527.527L36.619,3.6,35.038,2.021,33.456,3.6l.527.527-.8.8A10.12,10.12,0,0,0,31.391,3.6c-.007,0-.011-.012-.019-.016s-.016,0-.024-.008A9.992,9.992,0,0,0,27.52,2.307V1.863h.559a.932.932,0,1,0,0-1.863H24.724a.932.932,0,0,0,0,1.863h.559v.431a10.251,10.251,0,0,0-1.2.2.373.373,0,1,0,.167.726,9.478,9.478,0,0,1,1.036-.178l.4-.031c.122-.009.235-.016.344-.021v.737a.373.373,0,1,0,.745,0V2.993a9.245,9.245,0,0,1,3.9,1.06l-.367.636a.373.373,0,1,0,.646.373l.366-.635a9.389,9.389,0,0,1,2.9,2.9l-.635.366a.373.373,0,0,0,.373.646l.636-.367a9.25,9.25,0,0,1,1.062,3.958h-.736a.373.373,0,1,0,0,.745h.736a9.25,9.25,0,0,1-1.062,3.958l-.636-.367a.373.373,0,1,0-.373.646l.635.366a9.39,9.39,0,0,1-2.9,2.9l-.366-.635a.373.373,0,0,0-.646.373l.367.636a9.245,9.245,0,0,1-3.9,1.06v-.733a.373.373,0,1,0-.745,0v.736a9.4,9.4,0,0,1-1.78-.23.373.373,0,1,0-.167.726,10.071,10.071,0,0,0,2.258.258H26.4l.009,0a10,10,0,0,0,4.927-1.332.316.316,0,0,0,.035-.015c.007,0,.012-.012.019-.016a10.136,10.136,0,0,0,3.642-3.638.353.353,0,0,0,.022-.029c0-.008,0-.016.008-.024a10.024,10.024,0,0,0,0-10.015Zm-.026-4.216.527.527-.527.527L34.51,3.6Zm-9.009-.831V1.118h-1.3a.186.186,0,0,1,0-.373h3.354a.186.186,0,1,1,0,.373h-1.3V2.244c-.13-.005-.253-.008-.373-.008h-.061c-.061,0-.122,0-.183.005Z" transform="translate(-13.8)"/>
    <path id="Path_299" data-name="Path 299" class="cls-3" d="M18.029,14H16.166a.373.373,0,1,0,0,.745h1.863a.373.373,0,1,0,0-.745Z" transform="translate(-8.782 -8.782)"/>
    <path id="Path_300" data-name="Path 300" class="cls-3" d="M14.893,21H11.166a.373.373,0,1,0,0,.745h3.727a.373.373,0,1,0,0-.745Z" transform="translate(-5.646 -13.173)"/>
    <path id="Path_301" data-name="Path 301" class="cls-3" d="M11.756,28H6.166a.373.373,0,1,0,0,.745h5.59a.373.373,0,1,0,0-.745Z" transform="translate(-2.509 -17.565)"/>
    <path id="Path_302" data-name="Path 302" class="cls-3" d="M9.247,35H2.166a.373.373,0,1,0,0,.745H9.247a.373.373,0,1,0,0-.745Z" transform="translate(0 -21.956)"/>
    <path id="Path_303" data-name="Path 303" class="cls-3" d="M13.011,42H8.166a.373.373,0,0,0,0,.745h4.845a.373.373,0,1,0,0-.745Z" transform="translate(-3.764 -26.347)"/>
    <path id="Path_304" data-name="Path 304" class="cls-3" d="M16.775,49H14.166a.373.373,0,0,0,0,.745h2.609a.373.373,0,0,0,0-.745Z" transform="translate(-7.528 -30.738)"/>
  </g>
</svg>
