<svg id="_3" data-name="3" xmlns="http://www.w3.org/2000/svg" xmlns:xlink="http://www.w3.org/1999/xlink" viewBox="0 0 68.559 39.421">
  <defs>
    <style>
      .cls-1 {
        fill: #fff;
      }

      .cls-2 {
        fill: #27253f;
        font-size: 6px;
        font-family: Montserrat-Medium, Montserrat;
        font-weight: 500;
      }

      .cls-3 {
        fill: url(#linear-gradient);
      }
    </style>
    <linearGradient id="linear-gradient" x1="0.5" x2="0.5" y2="1" gradientUnits="objectBoundingBox">
      <stop offset="0" stop-color="#ffab68"/>
      <stop offset="1" stop-color="#ff599d"/>
    </linearGradient>
  </defs>
  <rect id="Rectangle_4" data-name="Rectangle 4" class="cls-1" width="68.559" height="39.421"/>
  <text id="Auto_debugging" data-name="Auto debugging" class="cls-2" transform="translate(33.999 33.424)"><tspan x="-25.155" y="0">Auto debugging</tspan></text>
  <g id="_001-magnifier" data-name="001-magnifier" transform="translate(22.282 3.428)">
    <g id="Group_202" data-name="Group 202" transform="translate(8.168 7.147)">
      <g id="Group_201" data-name="Group 201">
        <path id="Path_138" data-name="Path 138" class="cls-3" d="M173.314,165.259l-.837.838-.559-.559a1.171,1.171,0,0,0,.228-1.345l.33-.33a1.185,1.185,0,0,0-1.662-1.689l-.014.014-.33.331a1.185,1.185,0,0,0-1.342.227l-.559-.558.838-.837-.56-.559-1.117,1.117a.4.4,0,0,0,0,.558l.838.837-.559.559-.837-.838a.406.406,0,0,0-.558,0l-1.117,1.117.558.558.837-.837.559.558a1.974,1.974,0,0,0,2.792,2.792l.558.558-.837.838.558.558,1.117-1.117a.4.4,0,0,0,0-.558l-.837-.838.558-.559.838.838a.4.4,0,0,0,.558,0l1.117-1.117Zm-5.305-.279.838-.838.558.559-1.624,1.624A1.185,1.185,0,0,1,168.008,164.98Zm1.675,1.675a1.185,1.185,0,0,1-1.342.227l1.622-1.624.558.558Zm1.675-1.675-.279.279-1.675-1.675.279-.279a.4.4,0,0,1,.558,0l1.117,1.117A.4.4,0,0,1,171.359,164.98Zm0-1.675-.279-.28.279-.279a.395.395,0,0,1,.559.558l-.28.28Z" transform="translate(-165.496 -160.792)"/>
      </g>
    </g>
    <g id="Group_204" data-name="Group 204" transform="translate(0 0)">
      <g id="Group_203" data-name="Group 203">
        <path id="Path_139" data-name="Path 139" class="cls-3" d="M23.248,35.524h0L19.466,31.74a8.282,8.282,0,0,0-9.2-12.635V17.177a1.185,1.185,0,0,0-1.185-1.185h-7.9A1.185,1.185,0,0,0,0,17.177v4.738A1.185,1.185,0,0,0,1.185,23.1H5.345A8.286,8.286,0,0,0,17.327,33.879l3.783,3.783a1.512,1.512,0,1,0,2.138-2.138Zm-13-13.455a5.5,5.5,0,1,1-2.577,2.54l0,0a.395.395,0,0,0,.614-.329V23.1h.79A1.182,1.182,0,0,0,10.25,22.069Zm-9.066.24a.4.4,0,0,1-.395-.395V17.177a.4.4,0,0,1,.395-.395h7.9a.4.4,0,0,1,.395.395v4.738a.4.4,0,0,1-.395.395H7.9A.4.4,0,0,0,7.5,22.7v.841l-1.755-1.17a.4.4,0,0,0-.219-.066ZM15.008,34.165A7.5,7.5,0,0,1,6.021,23.508l.992.661a6.325,6.325,0,1,0,3.253-2.976V19.935a7.5,7.5,0,0,1,4.742,14.23Zm5.919,2.2-2.966-2.966a8.369,8.369,0,0,0,1.021-1.021l2.966,2.966Zm1.763.742a.722.722,0,0,1-1.021,0l-.184-.183L22.506,35.9l.184.183A.722.722,0,0,1,22.69,37.1Z" transform="translate(0 -15.992)"/>
      </g>
    </g>
    <g id="Group_206" data-name="Group 206" transform="translate(19.584 4.075)">
      <g id="Group_205" data-name="Group 205">
        <path id="Path_140" data-name="Path 140" class="cls-3" d="M397.378,98.552l-.578.537a9.5,9.5,0,0,1,2.338,8.339l.774.158a10.337,10.337,0,0,0,.205-2.053A10.232,10.232,0,0,0,397.378,98.552Z" transform="translate(-396.8 -98.552)"/>
      </g>
    </g>
    <g id="Group_208" data-name="Group 208" transform="translate(2.904 14.088)">
      <g id="Group_207" data-name="Group 207">
        <path id="Path_141" data-name="Path 141" class="cls-3" d="M59.59,301.432l-.75.253a10.319,10.319,0,0,0,9.318,6.973l.031-.79A9.524,9.524,0,0,1,59.59,301.432Z" transform="translate(-58.84 -301.432)"/>
      </g>
    </g>
    <g id="Group_210" data-name="Group 210" transform="translate(13.014 20.465)">
      <g id="Group_209" data-name="Group 209">
        <path id="Path_142" data-name="Path 142" class="cls-3" d="M264.438,430.64c-.248.027-.5.049-.758.059l.032.79c.276-.011.553-.033.821-.065Z" transform="translate(-263.68 -430.64)"/>
      </g>
    </g>
    <g id="Group_212" data-name="Group 212" transform="translate(2.764 1.579)">
      <g id="Group_211" data-name="Group 211">
        <rect id="Rectangle_21" data-name="Rectangle 21" class="cls-3" width="0.79" height="0.79"/>
      </g>
    </g>
    <g id="Group_214" data-name="Group 214" transform="translate(4.343 1.579)">
      <g id="Group_213" data-name="Group 213">
        <rect id="Rectangle_22" data-name="Rectangle 22" class="cls-3" width="3.948" height="0.79"/>
      </g>
    </g>
    <g id="Group_216" data-name="Group 216" transform="translate(1.974 3.159)">
      <g id="Group_215" data-name="Group 215">
        <rect id="Rectangle_23" data-name="Rectangle 23" class="cls-3" width="6.318" height="0.79"/>
      </g>
    </g>
    <g id="Group_218" data-name="Group 218" transform="translate(1.974 4.738)">
      <g id="Group_217" data-name="Group 217">
        <rect id="Rectangle_24" data-name="Rectangle 24" class="cls-3" width="5.528" height="0.79"/>
      </g>
    </g>
  </g>
</svg>
