<svg id="_4" data-name="4" xmlns="http://www.w3.org/2000/svg" xmlns:xlink="http://www.w3.org/1999/xlink" viewBox="0 0 42.849 39.421">
  <defs>
    <style>
      .cls-1 {
        fill: #fff;
      }

      .cls-2 {
        fill: #27253f;
        font-size: 6px;
        font-family: Montserrat-Medium, Montserrat;
        font-weight: 500;
      }

      .cls-3 {
        fill: url(#linear-gradient);
      }
    </style>
    <linearGradient id="linear-gradient" x1="0.5" x2="0.5" y2="1" gradientUnits="objectBoundingBox">
      <stop offset="0" stop-color="#c588fc"/>
      <stop offset="1" stop-color="#10eae1"/>
    </linearGradient>
  </defs>
  <g id="_1" data-name="1" transform="translate(0 0)">
    <rect id="Rectangle_4" data-name="Rectangle 4" class="cls-1" width="42.849" height="39.421" transform="translate(0 0)"/>
    <text id="Flexible" class="cls-2" transform="translate(9.57 33.424)"><tspan x="0" y="0">Flexible</tspan></text>
  </g>
  <g id="_003-manager" data-name="003-manager" transform="translate(11.292 3.869)">
    <path id="Path_160" data-name="Path 160" class="cls-3" d="M154.263,142.154l-1.146.3-.006,0a1.588,1.588,0,0,0-1.111,1.52v.332a.686.686,0,0,0,.709.659h6.582A.686.686,0,0,0,160,144.3v-.332a1.588,1.588,0,0,0-1.111-1.52l-.006,0-1.146-.3a.409.409,0,0,1-.19-.105v-.623l0,0a2.669,2.669,0,0,0,.609-1.714v-.464a4.3,4.3,0,0,0-.026-2.707l0,0-.009-.018-.005-.01-.009-.015-.008-.011-.009-.011-.011-.013-.007-.008-.014-.014-.007-.006-.016-.013-.008-.005-.016-.011-.01-.006-.015-.008-.013-.006-.014-.006-.015,0-.013,0-.015,0-.014,0-.013,0-.017,0h-.041l-.021,0h0a3.023,3.023,0,0,1-1.041-.136,2.435,2.435,0,0,0-2.11.138,1.247,1.247,0,0,0-1.106,1.334,8.68,8.68,0,0,0,.3,1.7v.257a2.776,2.776,0,0,0,.6,1.733v.666A.409.409,0,0,1,154.263,142.154Zm.209-2.609a3.788,3.788,0,0,1,.226-1.036,9.044,9.044,0,0,1,2.846.515v.684a2.047,2.047,0,0,1-.522,1.383l0,0a1.4,1.4,0,0,1-1.016.476,1.806,1.806,0,0,1-1.532-1.919Zm.6,2.377a1.835,1.835,0,0,0,.935.263,1.892,1.892,0,0,0,.928-.245v.113a.6.6,0,0,0,.14.385l-1.071.632-1.067-.64a.6.6,0,0,0,.133-.376Zm-2.359,2.429c-.063,0-.094-.036-.094-.044v-.332a.964.964,0,0,1,.659-.927l1.042-.271,1.376.826v.748Zm6.676-.377v.332c0,.008-.031.044-.094.044h-2.983V143.6l1.395-.823,1.024.266A.964.964,0,0,1,159.386,143.973Zm-4.618-7h.03l.011,0,.019,0,.013,0,.016,0,.014,0,.015-.005.014-.007.013-.006.015-.009.011-.007.018-.013.006,0c.453-.37,1.04-.229,1.662-.08a4.521,4.521,0,0,0,1.012.163,3.782,3.782,0,0,1,.074,1.447,9.649,9.649,0,0,0-3.227-.538h-.034l-.016,0-.014,0-.01,0-.019.005,0,0-.024.009h0l-.025.012,0,0-.02.012-.013.01-.01.008-.016.015-.005,0-.015.016-.005.006-.011.014-.007.01-.007.011-.009.015,0,.009-.006.012a2.8,2.8,0,0,1-.035-.384C154.167,137.358,154.324,136.968,154.768,136.968Z" transform="translate(-146.156 -130.817)"/>
    <path id="Path_161" data-name="Path 161" class="cls-3" d="M19.632,19.547l.008-.013.007-.013.007-.014.006-.013.005-.014.005-.014,0-.014,0-.015c0-.006,0-.011,0-.017s0-.009,0-.013,0-.02,0-.03V16.3a.308.308,0,0,0-.615,0v2.333l-3.142-3.142a8.3,8.3,0,0,0,0-11.3L19.069,1.05V3.383a.308.308,0,1,0,.615,0V.308c0-.01,0-.02,0-.03s0-.009,0-.013,0-.011,0-.017l0-.015,0-.014L19.665.2,19.66.19,19.654.177,19.647.163,19.64.15,19.632.137l-.01-.014L19.614.113A.309.309,0,0,0,19.571.07L19.561.062l-.014-.01L19.534.044,19.521.036,19.507.03,19.494.023,19.48.018,19.466.013l-.014,0-.015,0L19.42,0l-.013,0H16.3a.308.308,0,1,0,0,.615h2.333L15.492,3.757a8.3,8.3,0,0,0-11.3,0L1.05.615H3.383a.308.308,0,0,0,0-.615H.308L.277,0,.264,0l-.017,0L.232.01l-.014,0L.2.018.19.023.177.03.163.036.15.044.137.052.123.062.113.07A.306.306,0,0,0,.07.113L.062.123.052.137.044.15.036.163.03.177.023.19.018.2.013.218l0,.014,0,.015C0,.253,0,.259,0,.264S0,.273,0,.277,0,.3,0,.308V3.383a.308.308,0,1,0,.615,0V1.05L3.757,4.192a8.3,8.3,0,0,0,0,11.3L.615,18.634V16.3A.308.308,0,0,0,0,16.3v3.076c0,.01,0,.02,0,.03s0,.009,0,.013,0,.011,0,.017l0,.015,0,.014.005.015.005.014.006.013.007.014.007.013.008.013.01.014.008.011a.309.309,0,0,0,.043.043l.011.008.014.01.013.008.013.007.014.007.013.006.014,0,.015.005.014,0,.015,0,.016,0,.013,0,.03,0H3.383a.308.308,0,0,0,0-.615H1.05l3.142-3.142a8.3,8.3,0,0,0,11.3,0l3.142,3.142H16.3a.308.308,0,1,0,0,.615h3.076l.03,0,.013,0,.016,0,.015,0,.014,0,.015-.005.014,0,.013-.006.014-.007.013-.007.013-.008.014-.01.011-.008a.309.309,0,0,0,.043-.043l.008-.011Zm-9.79-2.016a7.689,7.689,0,1,1,7.689-7.689A7.7,7.7,0,0,1,9.842,17.531Z" transform="translate(0 0)"/>
    <path id="Path_162" data-name="Path 162" class="cls-3" d="M368.424,120.109a.308.308,0,0,0,.45-.42c-.112-.121-.23-.239-.351-.351a.308.308,0,1,0-.419.45C368.214,119.891,368.322,120,368.424,120.109Z" transform="translate(-353.858 -114.671)"/>
    <path id="Path_163" data-name="Path 163" class="cls-3" d="M72.615,79.074A6.46,6.46,0,0,1,82.6,73.659a.308.308,0,0,0,.336-.515,7.074,7.074,0,0,0-9.315,10.432.308.308,0,1,0,.474-.392A6.468,6.468,0,0,1,72.615,79.074Z" transform="translate(-69.232 -69.232)"/>
    <path id="Path_164" data-name="Path 164" class="cls-3" d="M146.539,152.131a.308.308,0,0,0-.515.336,6.459,6.459,0,0,1-9.524,8.505.308.308,0,0,0-.392.474,7.075,7.075,0,0,0,10.431-9.316Z" transform="translate(-130.768 -146.148)"/>
  </g>
</svg>
