<svg xmlns="http://www.w3.org/2000/svg" xmlns:xlink="http://www.w3.org/1999/xlink" viewBox="0 0 1442 406">
  <defs>
    <style>
      .cls-1 {
        opacity: 0.545;
        fill: url(#linear-gradient);
      }

      .cls-2 {
        fill: none;
        stroke: #37a1f7;
        stroke-miterlimit: 10;
        stroke-width: 2px;
        opacity: 0.546;
      }
    </style>
    <linearGradient id="linear-gradient" x1="0.5" x2="0.5" y2="1" gradientUnits="objectBoundingBox">
      <stop offset="0" stop-color="#28cefe"/>
      <stop offset="1" stop-color="#4baefe"/>
    </linearGradient>
  </defs>
  <g id="lines" transform="translate(1442 1) rotate(180)">
    <path id="fill" class="cls-1" d="M0,151c-15.34,0-15.34-32.223-30.681-32.223S-46.021,48.9-61.362,48.9-76.7,83.219-92.043,83.219s-15.34-72.4-30.681-72.4-15.34,23.94-30.681,23.94S-163.66,77.338-179,77.338-199.426,166.5-214.766,166.5-230.106,49-245.447,49s-15.34,85.062-30.681,85.062-15.34-56.728-30.681-56.728-6.351,29.217-21.691,29.217S-352.83,1.787-368.17,1.787-383.511,12.9-398.851,12.9s-15.34,64.433-30.681,64.433-15.34,59.891-30.681,59.891-15.34-68.614-30.681-68.614-15.34-57.8-30.681-57.8S-536.915,28.5-552.255,28.5s-15.34,26.131-30.681,26.131-15.34,62.737-30.681,62.737-15.34,24.92-30.681,24.92-15.34-2.475-30.681-2.475-15.34,89.532-30.681,89.532S-721,187-736.34,187s-15.34,61.187-30.681,61.187-15.34-11.639-30.681-11.639-15.34-61.689-30.681-61.689-15.34-56.341-30.681-56.341-15.34-41.182-30.681-41.182S-905.085,28.5-920.426,28.5-935.766,49-951.106,49-966.447,1.68-981.787,1.68s-15.34,75.826-30.681,75.826-15.34-51.587-30.681-51.587S-1058.489,0-1073.83,0s-15.34,8.314-30.681,8.314-15.34,26.37-30.681,26.37-15.34-11.191-30.681-11.191-15.34,31.14-30.681,31.14-15.34-52.953-30.681-52.953-15.34,104.875-30.681,104.875-15.34-80.636-30.681-80.636-15.34,57.3-30.681,57.3-15.34-37.029-30.681-37.029-15.34,37.21-30.681,37.21-15.34-37.21-30.681-37.21S-1426.66,151.37-1442,151.37V399.452a5.547,5.547,0,0,0,5.546,5.548H-5.546A5.547,5.547,0,0,0,0,399.452Z" transform="rotate(180)"/>
    <path id="line" class="cls-2" d="M0,151c-15.34,0-15.34-33.63-30.681-33.63S-46.021,49-61.362,49-76.7,83.4-92.043,83.4s-15.34-72.558-30.681-72.558-15.34,23.841-30.681,23.841S-163.66,77.506-179,77.506-199.426,166.5-214.766,166.5s-15.34-120.31-30.681-120.31-15.34,87.876-30.681,87.876-15.34-56.56-30.681-56.56-6.351,29.28-21.691,29.28-24.33-105-39.67-105-15.34,11.142-30.681,11.142-15.34,64.573-30.681,64.573-15.34,60.021-30.681,60.021-15.34-68.763-30.681-68.763-15.34-57.921-30.681-57.921-15.34,17.72-30.681,17.72-15.34,26.188-30.681,26.188-15.34,62.874-30.681,62.874S-628.957,142.6-644.3,142.6s-15.34-2.481-30.681-2.481-15.34,88.731-30.681,88.731S-721,187-736.34,187s-15.34,61.727-30.681,61.727-15.34-11.664-30.681-11.664-15.34-61.823-30.681-61.823-15.34-56.463-30.681-56.463-15.34-41.271-30.681-41.271-15.34-48.943-30.681-48.943S-935.766,49-951.106,49s-15.34-47.321-30.681-47.321-15.34,75.823-30.681,75.823-15.34-52.754-30.681-52.754S-1058.489,0-1073.83,0s-15.34,8.332-30.681,8.332-15.34,26.427-30.681,26.427-15.34-11.216-30.681-11.216-15.34,31.208-30.681,31.208-15.34-52.961-30.681-52.961-15.34,105-30.681,105-15.34-80.811-30.681-80.811-15.34,57.425-30.681,57.425-15.34-36.662-30.681-36.662-15.34,36.481-30.681,36.481-15.34-36.929-30.681-36.929-15.34,104.5-30.681,104.5" transform="rotate(180)"/>
  </g>
</svg>
