<svg xmlns="http://www.w3.org/2000/svg" xmlns:xlink="http://www.w3.org/1999/xlink" viewBox="0 0 1104.912 206.611">
  <defs>
    <style>
      .cls-1 {
        opacity: 0.807;
        fill: url(#linear-gradient);
      }

      .cls-2 {
        fill: url(#linear-gradient-2);
      }

      .cls-3 {
        fill: url(#linear-gradient-5);
      }

      .cls-4 {
        opacity: 0.353;
      }

      .cls-4, .cls-5 {
        fill: url(#linear-gradient-6);
      }

      .cls-5 {
        opacity: 0.8;
      }

      .cls-6, .cls-7 {
        fill: #4baffe;
      }

      .cls-6 {
        opacity: 0.671;
      }

      .cls-7 {
        opacity: 0.404;
      }

      .cls-8 {
        fill: #43b7fe;
        font-size: 128px;
        font-family: Montserrat-Medium, Montserrat;
        font-weight: 500;
      }

      .cls-9 {
        fill: #7b7b7b;
        font-family: Montserrat-Light, Montserrat;
        font-weight: 300;
      }
    </style>
    <linearGradient id="linear-gradient" x1="0.071" y1="0.157" x2="0.953" y2="1.056" gradientUnits="objectBoundingBox">
      <stop offset="0" stop-color="#4facfe"/>
      <stop offset="1" stop-color="#00f2fe"/>
    </linearGradient>
    <linearGradient id="linear-gradient-2" x1="1" y1="-0.098" x2="0" y2="1" xlink:href="#linear-gradient"/>
    <linearGradient id="linear-gradient-5" x2="0" y2="1" gradientUnits="objectBoundingBox">
      <stop offset="0" stop-color="#4facfe" stop-opacity="0.569"/>
      <stop offset="1" stop-color="#00f2fe" stop-opacity="0.725"/>
    </linearGradient>
    <linearGradient id="linear-gradient-6" x1="0" y1="0" x2="0" y2="1" xlink:href="#linear-gradient"/>
  </defs>
  <g id="Group_500" data-name="Group 500" transform="translate(999.912 -1501.545)">
    <g id="Group_499" data-name="Group 499" transform="translate(-980.544 1505.131)">
      <g id="Group_415" data-name="Group 415" transform="translate(0 0.054)">
        <g id="_001-mobileme-logo-of-black-cloud" data-name="001-mobileme-logo-of-black-cloud">
          <path id="MobileMe" class="cls-1" d="M208.563,169.4a41.1,41.1,0,0,1-40.943,41.251H40.936a41.276,41.276,0,0,1-6.433-81.99,26.312,26.312,0,0,1-.385-4.459A26.039,26.039,0,0,1,60.064,98.071a25.665,25.665,0,0,1,16.766,6.2C84.885,85.986,95.211,69.3,124.181,69.3c35.134,0,51.786,27.3,51.786,56.11,0,1.2-.05,2.4-.131,3.58A41.19,41.19,0,0,1,208.563,169.4Z" transform="translate(0 -69.296)"/>
        </g>
        <circle id="Ellipse_50" data-name="Ellipse 50" class="cls-2" cx="7.273" cy="7.273" r="7.273" transform="translate(193.959 37.822)"/>
        <circle id="Ellipse_51" data-name="Ellipse 51" class="cls-2" cx="3.394" cy="3.394" r="3.394" transform="translate(187.17 26.184)"/>
        <circle id="Ellipse_52" data-name="Ellipse 52" class="cls-2" cx="3.394" cy="3.394" r="3.394" transform="translate(64.006 14.547)"/>
        <ellipse id="Ellipse_53" data-name="Ellipse 53" class="cls-3" cx="68.925" cy="6.234" rx="68.925" ry="6.234" transform="translate(35.571 135.563)"/>
      </g>
      <g id="Group_417" data-name="Group 417" transform="translate(0 0)">
        <circle id="Ellipse_55" data-name="Ellipse 55" class="cls-4" cx="40.698" cy="40.698" r="40.698" transform="translate(0 60.233)"/>
        <circle id="Ellipse_57" data-name="Ellipse 57" class="cls-5" cx="52.093" cy="52.093" r="52.093" transform="translate(73.256 0)"/>
        <circle id="Ellipse_58" data-name="Ellipse 58" class="cls-6" cx="40.698" cy="40.698" r="40.698" transform="translate(128.605 60.233)"/>
        <circle id="Ellipse_56" data-name="Ellipse 56" class="cls-7" cx="29.302" cy="29.302" r="29.302" transform="translate(34.186 27.674)"/>
      </g>
    </g>
    <text id="Talentclouds" class="cls-8" transform="translate(-305 1625.545)"><tspan x="-409.088" y="0">Talent</tspan><tspan class="cls-9" y="0">clouds</tspan></text>
  </g>
</svg>
