<svg xmlns="http://www.w3.org/2000/svg" xmlns:xlink="http://www.w3.org/1999/xlink" viewBox="0 0 1107.24 204.16">
  <defs>
    <style>
      .cls-1 {
        fill: #fff;
        font-size: 129px;
        font-family: Montserrat-Medium, Montserrat;
        font-weight: 500;
      }

      .cls-2 {
        font-family: Montserrat-Light, Montserrat;
        font-weight: 300;
      }

      .cls-3, .cls-6, .cls-7, .cls-8, .cls-9 {
        fill: url(#linear-gradient);
      }

      .cls-4 {
        opacity: 0.807;
        fill: url(#linear-gradient-2);
      }

      .cls-5 {
        fill: url(#linear-gradient-3);
      }

      .cls-6 {
        opacity: 0.353;
      }

      .cls-7 {
        opacity: 0.8;
      }

      .cls-8 {
        opacity: 0.671;
      }

      .cls-9 {
        opacity: 0.404;
      }
    </style>
    <linearGradient id="linear-gradient" x2="0" y2="1" gradientUnits="objectBoundingBox">
      <stop offset="0" stop-color="#d6d6d6"/>
      <stop offset="1" stop-color="#fff"/>
    </linearGradient>
    <linearGradient id="linear-gradient-2" x1="0.071" y1="0.157" x2="0.953" y2="1.056" xlink:href="#linear-gradient"/>
    <linearGradient id="linear-gradient-3" x1="1" y1="-0.098" xlink:href="#linear-gradient"/>
  </defs>
  <g id="Group_498" data-name="Group 498" transform="translate(999.24 -1250.722)">
    <text id="Talentclouds" class="cls-1" transform="translate(-305 1376)"><tspan x="-412.284" y="0">Talent</tspan><tspan class="cls-2" y="0">clouds</tspan></text>
    <g id="Group_497" data-name="Group 497" transform="translate(-981.309 1250.722)">
      <ellipse id="Ellipse_53" data-name="Ellipse 53" class="cls-3" cx="69.89" cy="6.322" rx="69.89" ry="6.322" transform="translate(36.069 137.516)"/>
      <g id="_001-mobileme-logo-of-black-cloud" data-name="001-mobileme-logo-of-black-cloud" transform="translate(0 0.055)">
        <path id="MobileMe" class="cls-4" d="M211.484,170.807a41.676,41.676,0,0,1-41.517,41.828H41.509A41.854,41.854,0,0,1,34.987,129.5a26.68,26.68,0,0,1-.39-4.522A26.4,26.4,0,0,1,60.9,98.474a26.024,26.024,0,0,1,17,6.29C86.074,86.219,96.545,69.3,125.92,69.3c35.626,0,52.511,27.684,52.511,56.9,0,1.222-.051,2.432-.133,3.63A41.767,41.767,0,0,1,211.484,170.807Z" transform="translate(0 -69.296)"/>
      </g>
      <circle id="Ellipse_50" data-name="Ellipse 50" class="cls-5" cx="7.375" cy="7.375" r="7.375" transform="translate(196.675 38.406)"/>
      <circle id="Ellipse_51" data-name="Ellipse 51" class="cls-5" cx="3.442" cy="3.442" r="3.442" transform="translate(189.792 26.606)"/>
      <circle id="Ellipse_52" data-name="Ellipse 52" class="cls-5" cx="3.442" cy="3.442" r="3.442" transform="translate(64.903 14.806)"/>
      <g id="Group_419" data-name="Group 419" transform="translate(0 0)">
        <circle id="Ellipse_55" data-name="Ellipse 55" class="cls-6" cx="41.268" cy="41.268" r="41.268" transform="translate(0 61.076)"/>
        <circle id="Ellipse_57" data-name="Ellipse 57" class="cls-7" cx="52.823" cy="52.823" r="52.823" transform="translate(74.282)"/>
        <circle id="Ellipse_58" data-name="Ellipse 58" class="cls-8" cx="41.268" cy="41.268" r="41.268" transform="translate(130.406 61.076)"/>
        <circle id="Ellipse_56" data-name="Ellipse 56" class="cls-9" cx="29.713" cy="29.713" r="29.713" transform="translate(34.665 28.062)"/>
      </g>
    </g>
  </g>
</svg>
